<svg width="70" height="21" viewBox="0 0 70 21" fill="none" xmlns="http://www.w3.org/2000/svg">
<path fill-rule="evenodd" clip-rule="evenodd" d="M13 2H15V19H13V21H2V19H0V2H2V0H13V2ZM9 15H6V18H12V12H9V15ZM3 9H6V6H9V3H3V9Z" fill="#D9D9D9"/>
<path fill-rule="evenodd" clip-rule="evenodd" d="M35 19H33V21H22V19H20V8H22V6H32V0H35V19ZM23 18H32V9H23V18Z" fill="#D9D9D9"/>
<path d="M45 6H51V9H45V18H51V21H44V19H42V9H39V6H42V0H45V6Z" fill="#D9D9D9"/>
<path fill-rule="evenodd" clip-rule="evenodd" d="M68 8H70V15H58V18H67V17H70V19H68V21H57V19H55V8H57V6H68V8ZM58 12H67V9H58V12Z" fill="#D9D9D9"/>
</svg>
